{"title":"romanii.au.talent.s05e10.720p.hdtv.x264-gbl","uid":11899428,"size":5289746701,"categoryP":"video","categoryS":"hd___tv_shows","magnet":"?xt=urn:btih:d18f7c2e9b5133b5876595e06270b82dd960239f&amp;dn=romanii.au.talent.s05e10.720p.hdtv.x264-gbl&amp;tr=udp%3A%2F%2Ftracker.openbittorrent.com%3A80&amp;tr=udp%3A%2F%2Fopen.demonii.com%3A1337&amp;tr=udp%3A%2F%2Ftracker.coppersurfer.tk%3A6969&amp;tr=udp%3A%2F%2Fexodus.desync.com%3A6969","seeders":10,"leechers":0,"uploader":null,"files":1,"time":1431265273,"description":"Romanii.Au.Talent.S05E10.720p.HDTV.x264-GBL//romanii.au.talent.s05e10.720p.hdtv.x264-gbl.mkv\nFormat                                  : Matroska\nFormat version                          : Version 4 / Version 2\nFile size                                : 4.93 GiB\nDuration                                : 3h 19mn\nOverall bit rate                        : 3 542 Kbps\nEncoded date                            : UTC 2015-05-09 16:53:46\nWriting application                      : mkvmerge v7.8.0 ('River Man') 32bit built on Mar 27 2015 16:18:02\nWriting library                          : libebml v1.3.1 + libmatroska v1.4.2\nDURATION                                : 03:19:08.416000000\nNUMBER_OF_FRAMES                        : 373388\nNUMBER_OF_BYTES                          : 573523968\n_STATISTICS_WRITING_APP                  : mkvmerge v7.8.0 ('River Man') 32bit built on Mar 27 2015 16:18:02\n_STATISTICS_WRITING_DATE_UTC            : 2015-05-09 16:53:46\n_STATISTICS_TAGS                        : BPS DURATION NUMBER_OF_FRAMES NUMBER_OF_BYTES\n\nVideo\nID                                      : 1\nFormat                                  : AVC\nFormat/Info                              : Advanced Video Codec\nFormat profile                          : &lt;a class=&quot;__cf_email__&quot; href=&quot;/cdn-cgi/l/email-protection&quot; data-cfemail=&quot;d29abbb5ba929ee6fce3&quot;&gt;[email&amp;#160;protected]&lt;/a&gt;&lt;script cf-hash='f9e31' type=&quot;text/javascript&quot;&gt;\n/* &lt;![CDATA[ */!function(){try{var t=&quot;currentScript&quot;in document?document.currentScript:function(){for(var t=document.getElementsByTagName(&quot;script&quot;),e=t.length;e--;)if(t[e].getAttribute(&quot;cf-hash&quot;))return t[e]}();if(t&amp;&amp;t.previousSibling){var e,r,n,i,c=t.previousSibling,a=c.getAttribute(&quot;data-cfemail&quot;);if(a){for(e=&quot;&quot;,r=parseInt(a.substr(0,2),16),n=2;a.length-n;n+=2)i=parseInt(a.substr(n,2),16)^r,e+=String.fromCharCode(i);e=document.createTextNode(e),c.parentNode.replaceChild(e,c)}}}catch(u){}}();/* ]]&gt; */&lt;/script&gt;\nFormat settings, CABAC                  : Yes\nFormat settings, ReFrames                : 5 frames\nCodec ID                                : V_MPEG4/ISO/AVC\nDuration                                : 3h 19mn\nBit rate                                : 3 087 Kbps\nWidth                                    : 1 280 pixels\nHeight                                  : 710 pixels\nDisplay aspect ratio                    : 16:9\nFrame rate                              : 25.000 fps\nColor space                              : YUV\nChroma subsampling                      : 4:2:0\nBit depth                                : 8 bits\nScan type                                : Progressive\nBits/(Pixel*Frame)                      : 0.136\nStream size                              : 4.29 GiB (87%)\nWriting library                          : x264 core 146 r2538 121396c\nEncoding settings                        : cabac=1 / ref=5 / deblock=1:0:0 / analyse=0x3:0x113 / me=umh / subme=8 / psy=1 / psy_rd=1.00:0.00 / mixed_ref=1 / me_range=16 / chroma_me=1 / trellis=1 / 8x8dct=1 / cqm=0 / deadzone=21,11 / fast_pskip=1 / chroma_qp_offset=-2 / threads=6 / lookahead_threads=1 / sliced_threads=0 / nr=0 / decimate=1 / interlaced=0 / bluray_compat=0 / constrained_intra=0 / bframes=3 / b_pyramid=2 / b_adapt=2 / b_bias=0 / direct=3 / weightb=1 / open_gop=0 / weightp=2 / keyint=250 / keyint_min=25 / scenecut=40 / intra_refresh=0 / rc_lookahead=50 / rc=crf / mbtree=1 / crf=23.0 / qcomp=0.60 / qpmin=0 / qpmax=69 / qpstep=4 / ip_ratio=1.40 / aq=1:1.00\nLanguage                                : English\nDefault                                  : Yes\nForced                                  : No\nDURATION                                : 03:19:08.400000000\nNUMBER_OF_FRAMES                        : 298710\nNUMBER_OF_BYTES                          : 4713524778\n_STATISTICS_WRITING_APP                  : mkvmerge v7.8.0 ('River Man') 32bit built on Mar 27 2015 16:18:02\n_STATISTICS_WRITING_DATE_UTC            : 2015-05-09 16:53:46\n_STATISTICS_TAGS                        : BPS DURATION NUMBER_OF_FRAMES NUMBER_OF_BYTES\n\nAudio\nID                                      : 2\nFormat                                  : AC-3\nFormat/Info                              : Audio Coding 3\nMode extension                          : CM (complete main)\nFormat settings, Endianness              : Big\nCodec ID                                : A_AC3\nDuration                                : 3h 19mn\nBit rate mode                            : Constant\nBit rate                                : 384 Kbps\nChannel(s)                              : 6 channels\nChannel positions                        : Front: L C R, Side: L R, LFE\nSampling rate                            : 48.0 KHz\nBit depth                                : 16 bits\nCompression mode                        : Lossy\nStream size                              : 547 MiB (11%)\nLanguage                                : Romanian\nDefault                                  : Yes\nForced                                  : No","torrent":{"xt":"urn:btih:d18f7c2e9b5133b5876595e06270b82dd960239f","amp;dn":"romanii.au.talent.s05e10.720p.hdtv.x264-gbl","amp;tr":["udp%3A%2F%2Ftracker.openbittorrent.com%3A80","udp%3A%2F%2Fopen.demonii.com%3A1337","udp%3A%2F%2Ftracker.coppersurfer.tk%3A6969","udp%3A%2F%2Fexodus.desync.com%3A6969"],"infoHash":"d18f7c2e9b5133b5876595e06270b82dd960239f","infoHashBuffer":{"type":"Buffer","data":[209,143,124,46,155,81,51,181,135,101,149,224,98,112,184,45,217,96,35,159]},"announce":[],"urlList":[]}}